<svg width="16" height="14" viewBox="0 0 16 14" fill="none" xmlns="http://www.w3.org/2000/svg">
<path d="M15 2H11.35L10.82 0.640002C10.7475 0.452066 10.6199 0.290413 10.454 0.176214C10.288 0.0620161 10.0914 0.000597153 9.89 2.09592e-06H6.11C5.90771 -0.000411977 5.71004 0.0605369 5.54311 0.174801C5.37618 0.289065 5.24783 0.451271 5.175 0.640002L4.65 2H1C0.734784 2 0.48043 2.10536 0.292893 2.2929C0.105357 2.48043 0 2.73479 0 3V13C0 13.2652 0.105357 13.5196 0.292893 13.7071C0.48043 13.8946 0.734784 14 1 14H15C15.2652 14 15.5196 13.8946 15.7071 13.7071C15.8946 13.5196 16 13.2652 16 13V3C16 2.73479 15.8946 2.48043 15.7071 2.2929C15.5196 2.10536 15.2652 2 15 2ZM2.085 4.815C1.97891 4.815 1.87717 4.77286 1.80216 4.69784C1.72714 4.62283 1.685 4.52109 1.685 4.415C1.685 4.30892 1.72714 4.20717 1.80216 4.13216C1.87717 4.05714 1.97891 4.015 2.085 4.015H3.285C3.39109 4.015 3.49283 4.05714 3.56784 4.13216C3.64286 4.20717 3.685 4.30892 3.685 4.415C3.685 4.52109 3.64286 4.62283 3.56784 4.69784C3.49283 4.77286 3.39109 4.815 3.285 4.815H2.085ZM8 12C7.10998 12 6.23995 11.7361 5.49993 11.2416C4.75991 10.7471 4.18314 10.0443 3.84254 9.22208C3.50195 8.39981 3.41283 7.49501 3.58647 6.6221C3.7601 5.74918 4.18868 4.94736 4.81802 4.31802C5.44736 3.68868 6.24918 3.2601 7.12209 3.08647C7.99501 2.91283 8.89981 3.00195 9.72208 3.34254C10.5443 3.68314 11.2471 4.25991 11.7416 4.99994C12.2361 5.73996 12.5 6.60999 12.5 7.5C12.5 8.69348 12.0259 9.83807 11.182 10.682C10.3381 11.5259 9.19347 12 8 12Z" fill="white"/>
<path d="M4.55499 7.53C4.556 8.20463 4.75003 8.86488 5.11416 9.43279C5.4783 10.0007 5.99734 10.4526 6.60999 10.735L7.15499 9.865C6.82303 9.72373 6.52557 9.51228 6.28305 9.24518C6.04053 8.97808 5.85869 8.66165 5.75003 8.31763C5.64136 7.9736 5.60845 7.61014 5.65354 7.25219C5.69863 6.89424 5.82065 6.55029 6.01124 6.24396C6.20183 5.93764 6.45646 5.67619 6.75764 5.47758C7.05883 5.27896 7.39943 5.14789 7.75607 5.09336C8.1127 5.03883 8.47691 5.06213 8.82368 5.16167C9.17045 5.26121 9.49158 5.43462 9.76499 5.67L10.31 4.79C9.79213 4.36955 9.16573 4.10443 8.50338 4.02537C7.84102 3.94631 7.16982 4.05654 6.56754 4.34329C5.96526 4.63004 5.45656 5.08157 5.10037 5.64557C4.74418 6.20957 4.55508 6.86295 4.55499 7.53Z" fill="white"/>
</svg>
