<svg width="75" height="55" viewBox="0 0 75 55" fill="none" xmlns="http://www.w3.org/2000/svg">
<path d="M63.3234 38.9117C62.5357 38.9129 61.766 39.1475 61.1116 39.586C60.4573 40.0245 59.9476 40.6472 59.647 41.3753C59.3463 42.1034 59.2683 42.9042 59.4227 43.6766C59.5771 44.4491 59.9571 45.1584 60.5145 45.7149C61.0719 46.2715 61.7818 46.6504 62.5544 46.8036C63.3271 46.9568 64.1278 46.8776 64.8555 46.5758C65.5831 46.2741 66.205 45.7635 66.6425 45.1084C67.08 44.4534 67.3135 43.6834 67.3135 42.8957C67.3135 42.372 67.2102 41.8534 67.0096 41.3697C66.809 40.8859 66.515 40.4464 66.1444 40.0764C65.7738 39.7064 65.3339 39.413 64.8498 39.2132C64.3658 39.0133 63.8471 38.9109 63.3234 38.9117ZM63.3234 45.6613C62.7766 45.6601 62.2425 45.4969 61.7885 45.1923C61.3345 44.8877 60.981 44.4553 60.7726 43.9498C60.5642 43.4444 60.5103 42.8885 60.6177 42.3524C60.7251 41.8163 60.989 41.3241 61.376 40.9379C61.763 40.5517 62.2558 40.2889 62.7921 40.1827C63.3285 40.0765 63.8842 40.1316 64.3892 40.3411C64.8942 40.5506 65.3258 40.9051 65.6294 41.3598C65.9331 41.8145 66.0951 42.3489 66.0951 42.8957C66.0935 43.6297 65.8008 44.3332 65.2811 44.8517C64.7615 45.3702 64.0574 45.6613 63.3234 45.6613Z" fill="white"/>
<path d="M63.3233 35.0495C61.3501 35.0527 59.4505 35.7993 58.0031 37.1406C56.5558 38.4818 55.6669 40.3192 55.5137 42.2865H41.5026V37.4131C41.5026 37.2515 41.4384 37.0966 41.3242 36.9823C41.21 36.8681 41.055 36.8039 40.8935 36.8039C40.7319 36.8039 40.5769 36.8681 40.4627 36.9823C40.3485 37.0966 40.2843 37.2515 40.2843 37.4131V42.2865H19.3469C19.2395 40.911 18.7712 39.5882 17.989 38.4517C17.2069 37.3152 16.1387 36.4052 14.8924 35.8136C13.646 35.222 12.2656 34.9698 10.8906 35.0824C9.51553 35.195 8.19456 35.6685 7.06106 36.455C5.92756 37.2415 5.02167 38.3132 4.43488 39.5618C3.84809 40.8104 3.60118 42.1918 3.71908 43.5664C3.83699 44.941 4.31554 46.2601 5.10639 47.3906C5.89725 48.521 6.97241 49.4228 8.22329 50.0048H4.82408C4.66252 50.0048 4.50757 50.0689 4.39333 50.1832C4.27909 50.2974 4.21491 50.4524 4.21491 50.6139C4.21491 50.7755 4.27909 50.9305 4.39333 51.0447C4.50757 51.1589 4.66252 51.2231 4.82408 51.2231H22.7765C22.9381 51.2231 23.093 51.1589 23.2073 51.0447C23.3215 50.9305 23.3857 50.7755 23.3857 50.6139C23.3857 50.4524 23.3215 50.2974 23.2073 50.1832C23.093 50.0689 22.9381 50.0048 22.7765 50.0048H14.8572C16.117 49.417 17.1984 48.5057 17.9913 47.3639C18.7843 46.2221 19.2604 44.8906 19.3712 43.5048H55.5137C55.6222 44.888 56.0947 46.2179 56.8832 47.3594C57.6717 48.501 58.7482 49.4136 60.0033 50.0048H54.2771C54.1155 50.0048 53.9606 50.0689 53.8463 50.1832C53.7321 50.2974 53.6679 50.4524 53.6679 50.6139C53.6679 50.7755 53.7321 50.9305 53.8463 51.0447C53.9606 51.1589 54.1155 51.2231 54.2771 51.2231H70.0243C70.1859 51.2231 70.3408 51.1589 70.455 51.0447C70.5693 50.9305 70.6335 50.7755 70.6335 50.6139C70.6335 50.4524 70.5693 50.2974 70.455 50.1832C70.3408 50.0689 70.1859 50.0048 70.0243 50.0048H66.619C68.2405 49.2544 69.5571 47.9727 70.3507 46.3719C71.1443 44.7711 71.3673 42.9472 70.9828 41.2024C70.5983 39.4575 69.6293 37.8963 68.2364 36.7774C66.8434 35.6584 65.1101 35.0488 63.3233 35.0495ZM11.5372 49.5174C10.2258 49.5186 8.94356 49.1308 7.85269 48.403C6.76181 47.6752 5.91136 46.6401 5.40896 45.4288C4.90656 44.2174 4.77479 42.8843 5.03033 41.598C5.28588 40.3118 5.91724 39.1303 6.84453 38.203C7.77182 37.2757 8.95335 36.6443 10.2396 36.3888C11.5258 36.1332 12.859 36.265 14.0703 36.7674C15.2816 37.2698 16.3167 38.1203 17.0445 39.2111C17.7723 40.302 18.1602 41.5843 18.159 42.8957C18.1574 44.6514 17.4592 46.3347 16.2177 47.5762C14.9762 48.8176 13.2929 49.5158 11.5372 49.5174ZM63.3173 49.5174C62.0061 49.5174 60.7245 49.1286 59.6344 48.4C58.5443 47.6715 57.6948 46.636 57.1933 45.4245C56.6919 44.2131 56.561 42.8801 56.8172 41.5943C57.0734 40.3085 57.7053 39.1275 58.6328 38.2008C59.5604 37.2742 60.7419 36.6434 62.028 36.3883C63.314 36.1333 64.6469 36.2654 65.8578 36.768C67.0688 37.2706 68.1035 38.121 68.8311 39.2118C69.5586 40.3025 69.9463 41.5845 69.9451 42.8957C69.9435 44.6514 69.2453 46.3347 68.0039 47.5762C66.7624 48.8176 65.0791 49.5158 63.3233 49.5174H63.3173Z" fill="white"/>
<path d="M11.5372 38.9117C10.7498 38.9141 9.9807 39.1498 9.32714 39.589C8.67358 40.0282 8.16483 40.6513 7.86516 41.3795C7.56548 42.1077 7.48832 42.9084 7.64342 43.6804C7.79852 44.4524 8.17892 45.1611 8.73657 45.7171C9.29423 46.2731 10.0041 46.6513 10.7766 46.804C11.5491 46.9568 12.3495 46.8772 13.0768 46.5753C13.8041 46.2734 14.4256 45.7627 14.8628 45.1078C15.3001 44.4529 15.5334 43.6831 15.5334 42.8957C15.5334 42.3715 15.43 41.8524 15.229 41.3683C15.028 40.8841 14.7335 40.4444 14.3622 40.0742C13.991 39.7041 13.5503 39.4109 13.0656 39.2114C12.5808 39.0119 12.0614 38.9101 11.5372 38.9117ZM11.5372 45.6614C10.9907 45.6589 10.4572 45.4947 10.004 45.1893C9.55082 44.884 9.19824 44.4512 8.99078 43.9456C8.78332 43.4401 8.73028 42.8844 8.83837 42.3487C8.94645 41.813 9.21081 41.3214 9.59808 40.9358C9.98534 40.5502 10.4782 40.288 11.0143 40.1823C11.5505 40.0766 12.1059 40.1321 12.6106 40.3417C13.1152 40.5514 13.5464 40.9059 13.8498 41.3604C14.1532 41.815 14.3151 42.3492 14.3151 42.8957C14.3151 43.2599 14.2431 43.6205 14.1034 43.9569C13.9636 44.2932 13.7588 44.5987 13.5007 44.8556C13.2426 45.1126 12.9363 45.3161 12.5993 45.4543C12.2624 45.5926 11.9014 45.663 11.5372 45.6614Z" fill="white"/>
<path d="M69.4943 32.4605V19.9541C69.4938 19.8537 69.4685 19.7551 69.4207 19.6669C69.3729 19.5787 69.304 19.5036 69.2202 19.4484C69.1366 19.3928 69.0406 19.3587 68.9408 19.3492C68.8409 19.3396 68.7401 19.3549 68.6476 19.3936L58.4256 23.6579C58.3145 23.7049 58.2199 23.7838 58.1537 23.8847C58.0876 23.9855 58.0529 24.1038 58.054 24.2244V29.4877C58.0134 29.4848 57.9727 29.4848 57.9321 29.4877H51.6332C51.4717 29.4877 51.3167 29.5519 51.2025 29.6661C51.0882 29.7803 51.0241 29.9353 51.0241 30.0969C51.0241 30.2584 51.0882 30.4134 51.2025 30.5276C51.3167 30.6419 51.4717 30.706 51.6332 30.706H57.9321C57.9725 30.7118 58.0136 30.7118 58.054 30.706V32.1985C57.0271 32.6892 56.0737 33.3207 55.2213 34.0748C55.1369 34.0292 55.043 34.0041 54.9472 34.0017H49.9093C49.7477 34.0017 49.5928 34.0659 49.4785 34.1801C49.3643 34.2943 49.3001 34.4493 49.3001 34.6109C49.3001 34.7724 49.3643 34.9274 49.4785 35.0416C49.5928 35.1558 49.7477 35.22 49.9093 35.22H54.0821C53.2056 36.2119 52.4921 37.3366 51.9683 38.5522C51.9054 38.7009 51.9041 38.8684 51.9646 39.018C52.0252 39.1677 52.1426 39.2871 52.2912 39.3502C52.3667 39.3809 52.4472 39.3975 52.5287 39.399C52.6483 39.3989 52.7652 39.3636 52.8649 39.2975C52.9645 39.2314 53.0425 39.1375 53.0892 39.0274C53.9455 36.9993 55.3785 35.2674 57.2104 34.0465C59.0422 32.8257 61.1923 32.1697 63.3937 32.16C65.5951 32.1502 67.7509 32.7872 69.5935 33.9918C71.4361 35.1964 72.8844 36.9156 73.7586 38.936C73.8232 39.0846 73.9442 39.2015 74.095 39.2609C74.2458 39.3203 74.414 39.3174 74.5627 39.2528C74.7113 39.1882 74.8282 39.0671 74.8876 38.9163C74.947 38.7655 74.9441 38.5973 74.8794 38.4487C73.7953 35.9124 71.9017 33.8067 69.4943 32.4605ZM59.2723 31.6442V24.6204L68.276 20.8861V24.1513H65.4859C65.3244 24.1513 65.1694 24.2155 65.0552 24.3297C64.9409 24.444 64.8767 24.5989 64.8767 24.7605C64.8767 24.922 64.9409 25.077 65.0552 25.1912C65.1694 25.3055 65.3244 25.3696 65.4859 25.3696H68.2638V27.5078H63.1771C63.0156 27.5078 62.8606 27.572 62.7464 27.6863C62.6321 27.8005 62.568 27.9555 62.568 28.117C62.568 28.2786 62.6321 28.4335 62.7464 28.5478C62.8606 28.662 63.0156 28.7262 63.1771 28.7262H68.2638V31.9183C65.4012 30.7054 62.187 30.614 59.2601 31.6624L59.2723 31.6442Z" fill="white"/>
<path d="M11.525 32.1376C13.7176 32.137 15.8625 32.7781 17.6951 33.9818C19.5277 35.1855 20.968 36.8992 21.8384 38.9116C21.903 39.0603 22.024 39.1772 22.1748 39.2366C22.3256 39.296 22.4939 39.293 22.6425 39.2284C22.7911 39.1638 22.908 39.0428 22.9674 38.892C23.0268 38.7412 23.0239 38.5729 22.9593 38.4243C22.305 36.9154 21.3582 35.5512 20.1735 34.4104C18.9888 33.2696 17.5898 32.375 16.0573 31.7782V22.8476C16.0575 22.7479 16.0331 22.6496 15.9864 22.5614C15.9396 22.4732 15.8719 22.3979 15.7893 22.342C15.7057 22.2864 15.6097 22.2523 15.5098 22.2428C15.4099 22.2332 15.3092 22.2485 15.2166 22.2872L7.74813 25.4001C7.63689 25.4458 7.54165 25.5234 7.47444 25.6231C7.40723 25.7229 7.37104 25.8403 7.37044 25.9605V31.6381C5.73519 32.2161 4.23896 33.1298 2.97791 34.3206C1.71686 35.5113 0.718887 36.9528 0.0481351 38.5522C-0.0147488 38.7009 -0.0160681 38.8684 0.0444667 39.018C0.105001 39.1677 0.222442 39.2871 0.370999 39.3502C0.446529 39.3809 0.527065 39.3975 0.608578 39.399C0.728154 39.3989 0.845058 39.3636 0.944718 39.2975C1.04438 39.2314 1.12239 39.1375 1.16902 39.0274C2.02332 36.9857 3.46232 35.2422 5.30502 34.0162C7.14771 32.7903 9.31179 32.1367 11.525 32.1376ZM8.5888 26.3687L14.839 23.7614V31.3761C13.7598 31.0757 12.6452 30.922 11.525 30.9192C10.5359 30.9223 9.55044 31.0409 8.5888 31.2726V26.3687Z" fill="white"/>
<path d="M22.3745 33.1184H28.1251C28.2867 33.1184 28.4416 33.0542 28.5559 32.94C28.6701 32.8257 28.7343 32.6708 28.7343 32.5092C28.7343 32.3476 28.6701 32.1927 28.5559 32.0785C28.4416 31.9642 28.2867 31.9 28.1251 31.9H22.9837V26.8195H39.206L38.1095 29.9385C38.0568 30.0904 38.0663 30.2569 38.1359 30.4019C38.2055 30.5468 38.3296 30.6583 38.4811 30.7121C38.5584 30.744 38.6415 30.7596 38.7251 30.7579C38.8087 30.7563 38.891 30.7374 38.967 30.7026C39.043 30.6677 39.1111 30.6176 39.1669 30.5553C39.2226 30.493 39.265 30.4199 39.2913 30.3405L40.6742 26.4113C40.7074 26.3167 40.7168 26.2154 40.7015 26.1163C40.6862 26.0172 40.6466 25.9234 40.5863 25.8432C40.5261 25.7631 40.447 25.6991 40.356 25.6568C40.2651 25.6146 40.1651 25.5955 40.065 25.6011H23.008V14.5872L23.1664 14.4471C24.9504 12.6565 26.1409 10.3608 26.5768 7.87098C27.0126 5.38119 26.6727 2.8176 25.6031 0.527413C25.5625 0.437966 25.5008 0.359673 25.4234 0.299211C25.346 0.238749 25.255 0.197912 25.1584 0.180182C25.0619 0.163431 24.9628 0.170188 24.8695 0.19988C24.7762 0.229572 24.6914 0.281326 24.6223 0.350752L17.3609 7.59996L13.9313 4.17029C14.0777 3.92653 14.1652 3.65198 14.1868 3.36846C14.2085 3.08494 14.1636 2.80028 14.0559 2.53713C13.9482 2.27398 13.7806 2.03958 13.5664 1.85259C13.3522 1.66561 13.0973 1.53118 12.822 1.46001C12.5467 1.38884 12.2586 1.38289 11.9806 1.44263C11.7026 1.50237 11.4424 1.62615 11.2207 1.80413C10.9989 1.98211 10.8217 2.20938 10.7033 2.46786C10.5848 2.72634 10.5283 3.00891 10.5382 3.29308C10.5382 3.77777 10.7307 4.24261 11.0734 4.58534C11.4162 4.92806 11.881 5.12061 12.3657 5.12061C12.5937 5.12029 12.8194 5.07473 13.0297 4.98659L16.5142 8.47108L9.04568 15.9091C8.97733 15.9788 8.92672 16.0638 8.8981 16.1571C8.86947 16.2504 8.86368 16.3492 8.8812 16.4452C8.89831 16.5412 8.93823 16.6317 8.99759 16.7091C9.05696 16.7865 9.13403 16.8485 9.22234 16.8899C10.8498 17.6549 12.6264 18.0502 14.4247 18.0473C17.0586 18.0335 19.6194 17.1799 21.7348 15.6106V32.5092C21.7347 32.5918 21.7514 32.6736 21.7839 32.7496C21.8164 32.8256 21.8641 32.8941 21.9239 32.9511C21.9837 33.0081 22.0545 33.0523 22.132 33.0811C22.2094 33.1098 22.292 33.1225 22.3745 33.1184ZM11.7504 3.26871C11.7504 3.14823 11.7862 3.03045 11.8531 2.93027C11.92 2.83009 12.0152 2.75201 12.1265 2.7059C12.2378 2.6598 12.3603 2.64773 12.4784 2.67124C12.5966 2.69474 12.7052 2.75276 12.7904 2.83796C12.8756 2.92315 12.9336 3.0317 12.9571 3.14987C12.9806 3.26803 12.9685 3.39052 12.9224 3.50183C12.8763 3.61314 12.7982 3.70828 12.698 3.77522C12.5979 3.84216 12.4801 3.87789 12.3596 3.87789C12.2022 3.87801 12.0508 3.81719 11.9372 3.70816C11.8237 3.59914 11.7567 3.45038 11.7504 3.29308V3.26871ZM10.5321 16.1041L24.8234 1.85542C25.5704 3.84849 25.728 6.01448 25.2772 8.09469C24.8265 10.1749 23.7864 12.0814 22.2814 13.5864C20.7763 15.0915 18.8698 16.1315 16.7896 16.5823C14.7094 17.033 12.5434 16.8755 10.5503 16.1284L10.5321 16.1041Z" fill="white"/>
<path d="M50.7438 27.3617C50.8916 27.4011 51.0489 27.3836 51.1843 27.3125C51.3197 27.2414 51.4234 27.1219 51.4749 26.9779L52.8394 22.3542C52.8666 22.2614 52.8712 22.1635 52.853 22.0685C52.8349 21.9736 52.7943 21.8843 52.7348 21.8081C52.6753 21.7319 52.5985 21.671 52.5107 21.6304C52.423 21.5897 52.3268 21.5706 52.2302 21.5745H48.167C48.0319 21.5687 47.8986 21.6081 47.7883 21.6864C47.6781 21.7647 47.597 21.8775 47.5578 22.007L44.1647 33.1001H31.4939C31.3323 33.1001 31.1773 33.1643 31.0631 33.2785C30.9489 33.3928 30.8847 33.5477 30.8847 33.7093V37.3643C30.8847 37.5259 30.9489 37.6808 31.0631 37.7951C31.1773 37.9093 31.3323 37.9735 31.4939 37.9735H35.2707C35.4323 37.9735 35.5873 37.9093 35.7015 37.7951C35.8157 37.6808 35.8799 37.5259 35.8799 37.3643C35.8799 37.2028 35.8157 37.0478 35.7015 36.9336C35.5873 36.8193 35.4323 36.7552 35.2707 36.7552H32.103V34.3185H44.6277C44.7577 34.3175 44.884 34.2751 44.9881 34.1972C45.0922 34.1194 45.1687 34.0103 45.2064 33.8859L48.6178 22.7685H51.4749L50.3418 26.6063C50.2961 26.7598 50.3126 26.9251 50.3879 27.0664C50.4631 27.2078 50.591 27.3139 50.7438 27.3617Z" fill="white"/>
<path d="M53.0161 45.9781C53.0161 45.8165 52.9519 45.6616 52.8376 45.5474C52.7234 45.4331 52.5685 45.3689 52.4069 45.3689H23.4527C23.2911 45.3689 23.1362 45.4331 23.022 45.5474C22.9077 45.6616 22.8435 45.8165 22.8435 45.9781C22.8435 46.1397 22.9077 46.2946 23.022 46.4089C23.1362 46.5231 23.2911 46.5873 23.4527 46.5873H52.3886C52.4701 46.5897 52.5513 46.5758 52.6274 46.5463C52.7034 46.5167 52.7727 46.4723 52.8312 46.4154C52.8898 46.3586 52.9363 46.2907 52.968 46.2155C52.9998 46.1404 53.0161 46.0597 53.0161 45.9781Z" fill="white"/>
<path d="M38.8223 54.3908C38.8223 54.2293 38.7581 54.0743 38.6438 53.9601C38.5296 53.8458 38.3746 53.7816 38.2131 53.7816H12.0672C11.9056 53.7816 11.7507 53.8458 11.6364 53.9601C11.5222 54.0743 11.458 54.2293 11.458 54.3908C11.458 54.5524 11.5222 54.7073 11.6364 54.8216C11.7507 54.9358 11.9056 55 12.0672 55H38.2131C38.3746 55 38.5296 54.9358 38.6438 54.8216C38.7581 54.7073 38.8223 54.5524 38.8223 54.3908Z" fill="white"/>
<path d="M42.3372 55H57.4265C57.5881 55 57.743 54.9358 57.8573 54.8216C57.9715 54.7073 58.0357 54.5524 58.0357 54.3908C58.0357 54.2293 57.9715 54.0743 57.8573 53.9601C57.743 53.8458 57.5881 53.7816 57.4265 53.7816H42.3372C42.1756 53.7816 42.0207 53.8458 41.9065 53.9601C41.7922 54.0743 41.728 54.2293 41.728 54.3908C41.728 54.5524 41.7922 54.7073 41.9065 54.8216C42.0207 54.9358 42.1756 55 42.3372 55Z" fill="white"/>
<path d="M39.4497 50.6139C39.4497 50.4524 39.3855 50.2974 39.2713 50.1832C39.157 50.0689 39.0021 50.0048 38.8405 50.0048H27.8205C27.659 50.0048 27.504 50.0689 27.3898 50.1832C27.2755 50.2974 27.2113 50.4524 27.2113 50.6139C27.2113 50.7755 27.2755 50.9304 27.3898 51.0447C27.504 51.1589 27.659 51.2231 27.8205 51.2231H38.8405C39.0021 51.2231 39.157 51.1589 39.2713 51.0447C39.3855 50.9304 39.4497 50.7755 39.4497 50.6139Z" fill="white"/>
<path d="M61.5202 53.7816C61.3586 53.7816 61.2037 53.8458 61.0894 53.9601C60.9752 54.0743 60.911 54.2293 60.911 54.3908C60.911 54.5524 60.9752 54.7073 61.0894 54.8216C61.2037 54.9358 61.3586 55 61.5202 55H66.2474C66.409 55 66.5639 54.9358 66.6782 54.8216C66.7924 54.7073 66.8566 54.5524 66.8566 54.3908C66.8566 54.2293 66.7924 54.0743 66.6782 53.9601C66.5639 53.8458 66.409 53.7816 66.2474 53.7816H61.5202Z" fill="white"/>
<path d="M44.512 50.0048C44.3504 50.0048 44.1955 50.0689 44.0812 50.1832C43.967 50.2974 43.9028 50.4524 43.9028 50.6139C43.9028 50.7755 43.967 50.9304 44.0812 51.0447C44.1955 51.1589 44.3504 51.2231 44.512 51.2231H48.167C48.3286 51.2231 48.4835 51.1589 48.5978 51.0447C48.712 50.9304 48.7762 50.7755 48.7762 50.6139C48.7762 50.4524 48.712 50.2974 48.5978 50.1832C48.4835 50.0689 48.3286 50.0048 48.167 50.0048H44.512Z" fill="white"/>
</svg>
