<svg width="28" height="40" viewBox="0 0 28 40" fill="none" xmlns="http://www.w3.org/2000/svg">
<path d="M16.107 20L27.5308 9.63857C27.7428 9.44601 27.8925 9.19223 27.9599 8.91088C28.0273 8.62953 28.0094 8.33391 27.9084 8.06321C27.8074 7.79252 27.6282 7.55954 27.3945 7.39517C27.1608 7.2308 26.8836 7.14281 26.5998 7.14286H22.3999V0H19.5999V10H22.9178L14 18.0886L5.08216 10H8.4001V0H5.60015V7.14286H1.40022C1.11638 7.14281 0.83922 7.2308 0.605507 7.39517C0.371793 7.55954 0.192564 7.79252 0.0915855 8.06321C-0.0093928 8.33391 -0.0273496 8.62953 0.0400966 8.91088C0.107543 9.19223 0.257205 9.44601 0.469238 9.63857L11.893 20L0.469238 30.3614C0.257205 30.554 0.107543 30.8078 0.0400966 31.0891C-0.0273496 31.3705 -0.0093928 31.6661 0.0915855 31.9368C0.192564 32.2075 0.371793 32.4405 0.605507 32.6048C0.83922 32.7692 1.11638 32.8572 1.40022 32.8571H5.60015V40H8.4001V30H5.08216L14 21.9114L22.9178 30H19.5999V40H22.3999V32.8571H26.5998C26.8835 32.8569 27.1605 32.7687 27.394 32.6042C27.6275 32.4397 27.8065 32.2068 27.9073 31.9361C28.0081 31.6655 28.0259 31.37 27.9584 31.0888C27.8909 30.8076 27.7413 30.5539 27.5294 30.3614L16.107 20Z" fill="white"/>
</svg>
