<svg width="18" height="22" viewBox="0 0 18 22" fill="none" xmlns="http://www.w3.org/2000/svg">
<path d="M7.00125 14.28V4.5C7.00125 4.23478 6.89589 3.98043 6.70835 3.79289C6.52082 3.60536 6.26646 3.5 6.00125 3.5C5.73603 3.5 5.48168 3.60536 5.29414 3.79289C5.10661 3.98043 5.00125 4.23478 5.00125 4.5V14.28C4.69897 14.4545 4.44763 14.7051 4.2722 15.0068C4.09677 15.3086 4.00336 15.651 4.00125 16C4.00125 16.5304 4.21196 17.0391 4.58704 17.4142C4.96211 17.7893 5.47082 18 6.00125 18C6.53168 18 7.04039 17.7893 7.41546 17.4142C7.79053 17.0391 8.00125 16.5304 8.00125 16C7.99914 15.651 7.90573 15.3086 7.7303 15.0068C7.55487 14.7051 7.30352 14.4545 7.00125 14.28ZM16.0012 1.5H15.5012V1C15.5012 0.734784 15.3959 0.48043 15.2084 0.292893C15.0208 0.105357 14.7665 0 14.5012 0C14.236 0 13.9817 0.105357 13.7941 0.292893C13.6066 0.48043 13.5012 0.734784 13.5012 1V1.5H13.0012C12.736 1.5 12.4817 1.60536 12.2941 1.79289C12.1066 1.98043 12.0012 2.23478 12.0012 2.5C12.0012 2.76522 12.1066 3.01957 12.2941 3.20711C12.4817 3.39464 12.736 3.5 13.0012 3.5H13.5012V4C13.5012 4.26522 13.6066 4.51957 13.7941 4.70711C13.9817 4.89464 14.236 5 14.5012 5C14.7665 5 15.0208 4.89464 15.2084 4.70711C15.3959 4.51957 15.5012 4.26522 15.5012 4V3.5H16.0012C16.2665 3.5 16.5208 3.39464 16.7084 3.20711C16.8959 3.01957 17.0012 2.76522 17.0012 2.5C17.0012 2.23478 16.8959 1.98043 16.7084 1.79289C16.5208 1.60536 16.2665 1.5 16.0012 1.5ZM10.5012 4.5C10.5012 3.30653 10.0271 2.16193 9.18323 1.31802C8.33931 0.474106 7.19472 1.19209e-07 6.00125 1.19209e-07C4.80777 1.19209e-07 3.66318 0.474106 2.81927 1.31802C1.97535 2.16193 1.50125 3.30653 1.50125 4.5V12C0.810091 12.7832 0.335376 13.7333 0.12406 14.7562C-0.087255 15.7792 -0.0278489 16.8396 0.296403 17.8326C0.620654 18.8255 1.19852 19.7166 1.97283 20.4177C2.74714 21.1188 3.69107 21.6056 4.71125 21.83C5.13177 21.926 5.56026 21.9829 5.99125 22C7.15272 22.0074 8.29137 21.6774 9.26899 21.0503C10.2466 20.4231 11.0212 19.5257 11.4987 18.4669C11.9762 17.4081 12.1362 16.2334 11.9591 15.0855C11.782 13.9376 11.2756 12.8657 10.5012 12V4.5ZM8.50125 19.11C7.97455 19.5382 7.34753 19.8254 6.67922 19.9444C6.01092 20.0634 5.32332 20.0104 4.68115 19.7904C4.03899 19.5703 3.46339 19.1905 3.00855 18.6865C2.55371 18.1826 2.2346 17.5713 2.08125 16.91C1.92675 16.2415 1.94679 15.5446 2.13943 14.8861C2.33207 14.2276 2.69083 13.6298 3.18125 13.15C3.27574 13.0574 3.35091 12.9469 3.4024 12.8251C3.4539 12.7032 3.4807 12.5723 3.48125 12.44V4.5C3.48125 3.83696 3.74464 3.20107 4.21348 2.73223C4.68232 2.26339 5.31821 2 5.98125 2C6.64429 2 7.28017 2.26339 7.74901 2.73223C8.21786 3.20107 8.48125 3.83696 8.48125 4.5V12.44C8.4818 12.5723 8.5086 12.7032 8.56009 12.8251C8.61159 12.9469 8.68676 13.0574 8.78125 13.15C9.19 13.5449 9.50991 14.0223 9.71967 14.5505C9.92943 15.0787 10.0242 15.6456 9.99773 16.2133C9.97123 16.781 9.82407 17.3366 9.56602 17.843C9.30798 18.3493 8.945 18.7949 8.50125 19.15V19.11Z" fill="white"/>
</svg>
