<svg width="116" height="112" viewBox="0 0 116 112" fill="none" xmlns="http://www.w3.org/2000/svg">
<path d="M100.414 54.0688H115.862V61.7929H100.414V54.0688Z" fill="white"/>
<path d="M84.9653 25.4393L96.5515 13.8531L102.02 19.3102L90.434 30.8964L84.9653 25.4393Z" fill="white"/>
<path d="M54.0688 0H61.793V15.4482H54.0688V0Z" fill="white"/>
<path d="M13.8493 96.5515L25.4355 84.9653L30.9003 90.4263L19.3141 102.012L13.8493 96.5515Z" fill="white"/>
<path d="M13.8493 19.3102L19.3103 13.8531L30.8964 25.4393L25.4355 30.9041L13.8493 19.3102Z" fill="white"/>
<path d="M0 54.0688H15.4482V61.7929H0V54.0688Z" fill="white"/>
<path d="M99.6178 74.7C98.4169 69.9117 95.921 65.5464 92.4035 62.0827C92.5866 60.7062 92.6821 59.3195 92.6893 57.931C92.7053 52.0404 91.224 46.2423 88.3844 41.0813C85.5448 35.9203 81.4402 31.5656 76.4559 28.4261C71.4717 25.2866 65.7713 23.4653 59.89 23.1333C54.0088 22.8013 48.1396 23.9694 42.8337 26.528C37.5277 29.0866 32.959 32.9516 29.5567 37.7603C26.1543 42.569 24.0298 48.1634 23.3827 54.0184C22.7356 59.8734 23.5872 65.7967 25.8574 71.2323C28.1276 76.6679 31.742 81.4374 36.3612 85.0928C35.0821 88.0249 34.555 91.2298 34.8277 94.4171C35.1004 97.6043 36.1642 100.673 37.9228 103.345C39.6813 106.017 42.079 108.208 44.8984 109.72C47.7178 111.231 50.8698 112.015 54.0687 112H92.6893C97.1966 112.003 101.563 110.427 105.03 107.547C108.497 104.667 110.846 100.663 111.669 96.2319C112.492 91.8004 111.737 87.2205 109.536 83.2873C107.335 79.3541 103.826 76.3159 99.6178 74.7ZM30.8964 57.931C30.861 50.8422 33.6134 44.0236 38.5598 38.9458C43.5062 33.8679 50.2503 30.9378 57.3375 30.7873C64.4248 30.6368 71.2872 33.278 76.4447 38.1412C81.6023 43.0045 84.6416 49.7001 84.9073 56.7839C81.3174 55.0241 77.377 54.0961 73.379 54.0689C67.3343 54.1017 61.4729 56.1479 56.7211 59.8842C51.9693 63.6204 48.5981 68.8337 47.1402 74.7C44.7781 75.6182 42.6204 76.9937 40.791 78.7475C37.703 76.2271 35.2135 73.0521 33.5023 69.4521C31.7911 65.8521 30.901 61.917 30.8964 57.931ZM92.6893 104.276H54.0687C51.2306 104.284 48.4886 103.248 46.3649 101.365C44.2412 99.4823 42.8841 96.8842 42.5521 94.0656C42.22 91.2469 42.9362 88.4046 44.5642 86.0798C46.1922 83.7551 48.6184 82.1103 51.3807 81.4586L53.922 80.8523L54.3043 78.2647C54.9769 73.6861 57.2739 69.5022 60.7759 66.477C64.2779 63.4518 68.7513 61.7872 73.379 61.7872C78.0067 61.7872 82.4801 63.4518 85.9821 66.477C89.4841 69.5022 91.7812 73.6861 92.4537 78.2647L92.8361 80.8523L95.3773 81.4548C98.1434 82.103 100.574 83.7469 102.206 86.0728C103.837 88.3987 104.555 91.2439 104.223 94.0654C103.89 96.8869 102.531 99.4874 100.404 101.371C98.2764 103.254 95.5303 104.288 92.6893 104.276Z" fill="white"/>
</svg>
